<?xml version="1.0" standalone="no"?>
<!DOCTYPE svg PUBLIC "-//W3C//DTD SVG 20010904//EN"
 "http://www.w3.org/TR/2001/REC-SVG-20010904/DTD/svg10.dtd">
<svg version="1.0" xmlns="http://www.w3.org/2000/svg"
 width="406.000000pt" height="406.000000pt" viewBox="0 0 406.000000 406.000000"
 preserveAspectRatio="xMidYMid meet">

<g transform="translate(0.000000,406.000000) scale(0.100000,-0.100000)"
fill="#000000" stroke="none">
<path d="M1845 4039 c-390 -37 -774 -195 -1085 -446 -356 -287 -624 -732 -709
-1175 -107 -556 13 -1094 350 -1573 83 -117 327 -361 444 -444 327 -230 653
-350 1041 -382 382 -32 813 67 1147 265 168 99 269 178 417 326 199 199 327
385 430 623 199 464 221 955 64 1425 -203 609 -682 1088 -1289 1288 -265 87
-540 118 -810 93z m288 -1594 c85 -22 134 -51 199 -116 169 -168 169 -430 1
-598 -174 -173 -432 -173 -606 0 -168 168 -168 430 1 598 113 114 257 155 405
116z m-710 -605 c60 -189 188 -327 371 -400 346 -139 730 44 843 400 l28 90
585 -2 585 -3 -3 -74 c-6 -163 -80 -429 -173 -617 -418 -852 -1424 -1240
-2303 -888 -229 91 -422 220 -606 404 -182 182 -309 371 -400 595 -67 165
-113 349 -126 503 l-7 82 589 0 589 0 28 -90z"/>
<path d="M1945 2221 c-168 -78 -164 -314 7 -385 134 -56 288 48 288 194 0 150
-160 253 -295 191z"/>
</g>
</svg>
